:FULLY-SPECIFIED
:FORCE-ALL-JOINTS-BE-3DOF
:DEGREES
816
root -4.50688 14.673 -40.19 397.164 -73.2309 332.377
lfemur -71.1582 20.0806 -23.5508
ltibia 87.8032 0 0
lfoot -8.03711 9.08065 0
ltoes -15.4801 0 0
rfemur -33.4133 -8.87866 22.9181
rtibia 72.2936 0 0
rfoot -33.0489 -26.5913 0
rtoes -22.4359 0 0
lowerback 18.1853 0.481604 4.52637
upperback 0.302519 1.66364 1.35565
thorax -9.82869 0.580165 -1.52465
lowerneck -2.10462 12.8612 5.14473
upperneck -1.73627 17.0973 -9.08484
head 1.14582 8.51476 -3.31681
lclavicle 5.3833e-15 5.63707e-15 0
lhumerus 108.18 -32.5362 20.1579
lradius 98.8138 0 0
lwrist 15.0496 0 0
lhand -8.96781 23.167 0
lfingers 7.12502 0 0
lthumb 16.9776 52.4906 0
rclavicle 5.3833e-15 5.63707e-15 0
rhumerus 28.0357 39.1638 -56.2425
rradius 64.5176 0 0
rwrist -8.58975 0 0
rhand -11.9339 -40.7101 0
rfingers 7.12502 0 0
rthumb 14.1095 -70.0789 0
817
root -4.33782 14.6943 -40.2403 394.315 -73.1455 335.264
lfemur -71.094 20.1977 -23.7496
ltibia 87.9054 0 0
lfoot -8.09093 9.24561 0
ltoes -15.4717 0 0
rfemur -33.6767 -9.0835 23.1309
rtibia 72.2299 0 0
rfoot -33.1173 -26.7962 0
rtoes -22.3386 0 0
lowerback 18.2379 0.452186 4.59221
upperback 0.30888 1.63486 1.31408
thorax -9.84613 0.562113 -1.60117
lowerneck -2.11005 12.9253 5.17809
upperneck -1.73673 17.1833 -9.17489
head 1.1614 8.55713 -3.34674
lclavicle 5.43247e-15 6.17998e-15 0
lhumerus 108.232 -33.2274 18.9809
lradius 100.121 0 0
lwrist 16.1352 0 0
lhand -8.84617 23.1446 0
lfingers 7.12502 0 0
lthumb 17.0949 52.4563 0
rclavicle 5.43247e-15 6.17998e-15 0
rhumerus 28.8623 39.4248 -56.1451
rradius 64.3653 0 0
rwrist -8.35177 0 0
rhand -12.382 -40.65 0
rfingers 7.12502 0 0
rthumb 13.6803 -70.0789 0
818
root -4.16876 14.7155 -40.2906 391.652 -73.013 337.947
lfemur -70.9892 20.3007 -23.8858
ltibia 87.9353 0 0
lfoot -8.11349 9.39454 0
ltoes -15.4639 0 0
rfemur -33.8894 -9.27454 23.3064
rtibia 72.1638 0 0
rfoot -33.1646 -26.985 0
rtoes -22.246 0 0
lowerback 18.2825 0.427713 4.64581
upperback 0.313389 1.61056 1.27579
thorax -9.86174 0.546946 -1.66815
lowerneck -2.12056 12.9785 5.20342
upperneck -1.72688 17.2548 -9.24757
head 1.17833 8.59227 -3.37001
lclavicle 5.34877e-15 6.67559e-15 0
lhumerus 108.112 -33.8184 17.9578
lradius 101.238 0 0
lwrist 17.0866 0 0
lhand -8.78202 23.1454 0
lfingers 7.12502 0 0
lthumb 17.1568 52.4464 0
rclavicle 5.34877e-15 6.67559e-15 0
rhumerus 29.4726 39.6285 -56.1061
rradius 64.2946 0 0
rwrist -8.20973 0 0
rhand -12.7889 -40.57 0
rfingers 7.12502 0 0
rthumb 13.2906 -70.0537 0
819
root -3.99969 14.7367 -40.3409 389.188 -72.8313 340.412
lfemur -70.842 20.3885 -23.956
ltibia 87.8891 0 0
lfoot -8.10301 9.52667 0
ltoes -15.4566 0 0
rfemur -34.0491 -9.45073 23.4427
rtibia 72.0958 0 0
rfoot -33.1896 -27.1563 0
rtoes -22.1582 0 0
lowerback 18.3187 0.408474 4.68634
upperback 0.315975 1.59099 1.24094
thorax -9.87542 0.534832 -1.72499
lowerneck -2.13637 13.0202 5.2203
upperneck -1.70626 17.3113 -9.302
head 1.19663 8.61984 -3.3863
lclavicle 5.12457e-15 7.12122e-15 0
lhumerus 107.812 -34.3039 17.0969
lradius 102.153 0 0
lwrist 17.8967 0 0
lhand -8.77817 23.1704 0
lfingers 7.12502 0 0
lthumb 17.1605 52.4621 0
rclavicle 5.12457e-15 7.12122e-15 0
rhumerus 29.8557 39.772 -56.128
rradius 64.3094 0 0
rwrist -8.16817 0 0
rhand -13.1517 -40.4691 0
rfingers 7.12502 0 0
rthumb 12.9431 -70.002 0
